<svg width="192" height="192" viewBox="0 0 192 192" fill="none" xmlns="http://www.w3.org/2000/svg">
  <rect width="192" height="192" rx="32" fill="#10B981" />
  <svg width="192" height="192" viewBox="0 0 192 192" fill="none" xmlns="http://www.w3.org/2000/svg">
    <g clip-path="url(#clip0_8_6)">
      <path
        d="M132.379 70.449C132.248 70.6922 132.119 70.9401 131.914 71.1483L125.962 77.0976C124.835 78.227 123.006 78.227 121.877 77.0976C120.747 75.9705 120.747 74.1416 121.877 73.0122L126.128 68.7586C123.965 68.0828 121.741 67.3016 119.489 66.4365C119.454 66.474 119.443 66.5229 119.407 66.5579L112.609 73.356C111.48 74.483 109.651 74.483 108.522 73.356C107.392 72.2241 107.392 70.3979 108.522 69.266L113.711 64.0768C111.403 63.0831 109.118 62.0424 106.901 60.9805C106.758 61.3104 106.562 61.6237 106.293 61.8951L99.4951 68.6907C98.368 69.8199 96.5368 69.8199 95.4073 68.6907C94.2802 67.5612 94.2802 65.7324 95.4073 64.6053L101.637 58.3732C95.6273 55.2957 90.5365 52.3446 87.6389 50.4104C80.4714 45.6305 79.1056 48.0229 76.0328 50.069C72.9601 52.1152 65.7923 61.1864 54.5279 61.1864C44.6291 61.1864 41.2313 57.7907 37.4613 53.4856C32.6814 48.025 27.5625 49.4632 27.5625 57.047C27.5625 61.4831 27.5625 92.48 27.5625 98.6254C27.5625 104.207 29.838 108.087 37.9244 108.753L38.1933 112.044C38.2962 113.311 39.3557 114.289 40.6276 114.289H44.6847C45.9545 114.289 47.0164 113.311 47.1191 112.044L47.4091 108.482C50.2108 108.192 53.0402 107.776 56.1857 107.353L56.4709 110.847C56.5739 112.114 57.6357 113.092 58.9053 113.092H62.9629C64.2324 113.092 65.2943 112.114 65.3972 110.847L65.7688 106.289C68.713 106.046 71.9635 105.858 75.6912 105.786C76.2197 105.774 76.7364 105.781 77.2463 105.793L77.6601 110.847C77.763 112.114 78.8246 113.092 80.0944 113.092H84.1518C85.4237 113.092 86.4832 112.114 86.5861 110.847L86.8973 107.056C90.0098 107.661 93.4405 108.363 97.7572 108.884L98.0144 112.044C98.1173 113.311 99.1789 114.289 100.449 114.289H104.506C105.778 114.289 106.837 113.311 106.94 112.044L107.141 109.581C110.436 109.684 114.157 109.668 118.411 109.474L118.621 112.044C118.724 113.311 119.786 114.289 121.056 114.289H125.113C126.383 114.289 127.444 113.311 127.547 112.044L127.814 108.781C131.022 108.456 133.99 108.038 136.7 107.521L136.899 109.948C137.002 111.216 138.063 112.193 139.333 112.193H143.39C144.662 112.193 145.722 111.216 145.825 109.948L146.225 105.044C159.891 100.326 164.438 92.5992 164.438 85.3127C164.438 75.5026 148.15 74.1486 132.379 70.449ZM44.4767 71.4148C41.2848 71.4148 32.1037 71.4148 32.1037 71.4148C32.1037 71.4148 32.1037 59.4439 32.1037 58.0455C32.1037 56.6473 33.5021 55.6486 35.2983 57.2459C36.1003 57.9591 42.6789 64.0319 45.2742 65.2293C47.87 66.4267 47.6687 71.4148 44.4767 71.4148ZM64.2608 96.5584L49.266 76.2041H57.6472L72.642 96.5584H64.2608ZM81.3084 96.5584L66.3139 76.2041H74.6951L89.6896 96.5584H81.3084ZM99.2682 96.5584L84.2737 76.2041H92.6548L107.649 96.5584H99.2682Z"
        fill="white" />
      <path
        d="M34.2051 138.355L27.7715 162.824L19.0527 163.316L11.1426 138.602L19.4746 137.828L22.8496 152.242L26.1191 137.828L34.2051 138.355ZM55.123 161.488L46.4043 162.613L45.3496 158.641H41.3418L40.4629 162.613L31.498 161.734L38.4941 138.32L48.2676 137.828L55.123 161.488ZM44.7168 153.262L43.3809 147.145L42.0801 153.262H44.7168ZM76.0938 146.055C76.0938 146.969 76.0117 147.801 75.8477 148.551C75.6953 149.289 75.4492 149.969 75.1094 150.59C74.7695 151.211 74.3301 151.785 73.791 152.312C73.252 152.84 72.6016 153.344 71.8398 153.824L76.0234 161.277L68.1133 162.824L65.4062 155.336L63.2266 155.406L62.9102 162.719H55.3516C55.4102 160.047 55.4629 157.387 55.5098 154.738C55.5684 152.09 55.6328 149.43 55.7031 146.758C55.7266 145.41 55.75 144.074 55.7734 142.75C55.7969 141.426 55.8438 140.09 55.9141 138.742C56.7344 138.438 57.543 138.186 58.3398 137.986C59.1367 137.787 59.9336 137.635 60.7305 137.529C61.5391 137.412 62.3535 137.336 63.1738 137.301C64.0059 137.254 64.8555 137.23 65.7227 137.23C67.0586 137.23 68.3477 137.418 69.5898 137.793C70.8438 138.156 71.9512 138.707 72.9121 139.445C73.873 140.184 74.6406 141.104 75.2148 142.205C75.8008 143.307 76.0938 144.59 76.0938 146.055ZM68.2188 146.617C68.2188 146.125 68.1484 145.674 68.0078 145.264C67.8789 144.854 67.6797 144.502 67.4102 144.209C67.1523 143.904 66.8242 143.67 66.4258 143.506C66.0391 143.33 65.582 143.242 65.0547 143.242C64.8203 143.242 64.5918 143.26 64.3691 143.295C64.1465 143.318 63.9297 143.359 63.7188 143.418L63.4375 149.957H63.8594C64.3633 149.957 64.873 149.893 65.3887 149.764C65.916 149.635 66.3848 149.436 66.7949 149.166C67.2168 148.896 67.5566 148.551 67.8145 148.129C68.084 147.707 68.2188 147.203 68.2188 146.617ZM93.8125 144.402L85.7617 154.562H93.1797L93.4258 162.016L77.7461 162.648L77.043 155.758L86.2188 144.508L77.1133 145.141L77.043 138.074H93.4961L93.8125 144.402ZM114.414 148.797C114.414 149.816 114.344 150.836 114.203 151.855C112.199 151.984 110.207 152.195 108.227 152.488C106.246 152.77 104.266 153.051 102.285 153.332C102.59 154.176 103.064 154.85 103.709 155.354C104.365 155.857 105.145 156.109 106.047 156.109C106.516 156.109 107.025 156.021 107.576 155.846C108.139 155.67 108.695 155.453 109.246 155.195C109.797 154.926 110.324 154.639 110.828 154.334C111.332 154.029 111.766 153.754 112.129 153.508L111.285 161.488C110.828 161.84 110.33 162.139 109.791 162.385C109.264 162.631 108.713 162.83 108.139 162.982C107.564 163.135 106.984 163.246 106.398 163.316C105.812 163.387 105.238 163.422 104.676 163.422C103.516 163.422 102.455 163.264 101.494 162.947C100.533 162.631 99.6602 162.191 98.875 161.629C98.1016 161.055 97.4219 160.381 96.8359 159.607C96.25 158.834 95.7637 157.99 95.377 157.076C94.9902 156.162 94.6973 155.195 94.498 154.176C94.2988 153.156 94.1992 152.125 94.1992 151.082C94.1992 149.992 94.2988 148.902 94.498 147.812C94.6973 146.723 94.9961 145.674 95.3945 144.666C95.8047 143.658 96.3145 142.727 96.9238 141.871C97.5449 141.004 98.2656 140.248 99.0859 139.604C99.9062 138.959 100.832 138.455 101.863 138.092C102.906 137.729 104.055 137.547 105.309 137.547C106.352 137.547 107.301 137.693 108.156 137.986C109.023 138.268 109.791 138.666 110.459 139.182C111.139 139.686 111.725 140.289 112.217 140.992C112.721 141.695 113.131 142.469 113.447 143.312C113.775 144.145 114.016 145.029 114.168 145.967C114.332 146.893 114.414 147.836 114.414 148.797ZM107.383 147.883C107.383 147.555 107.348 147.221 107.277 146.881C107.207 146.529 107.09 146.213 106.926 145.932C106.773 145.65 106.568 145.422 106.311 145.246C106.053 145.059 105.73 144.965 105.344 144.965C104.875 144.965 104.459 145.094 104.096 145.352C103.744 145.598 103.439 145.914 103.182 146.301C102.924 146.676 102.713 147.086 102.549 147.531C102.385 147.977 102.262 148.387 102.18 148.762L107.383 148.27V147.883ZM136.756 161.488L128.037 162.613L126.982 158.641H122.975L122.096 162.613L113.131 161.734L120.127 138.32L129.9 137.828L136.756 161.488ZM126.35 153.262L125.014 147.145L123.713 153.262H126.35ZM157.604 146.793C157.604 147.93 157.434 148.938 157.094 149.816C156.754 150.695 156.285 151.469 155.688 152.137C155.102 152.793 154.41 153.35 153.613 153.807C152.816 154.252 151.961 154.621 151.047 154.914C150.145 155.195 149.207 155.406 148.234 155.547C147.262 155.676 146.307 155.746 145.369 155.758V163.246H137.178C137.178 161.91 137.178 160.609 137.178 159.344C137.189 158.078 137.195 156.824 137.195 155.582C137.207 154.328 137.213 153.068 137.213 151.803C137.225 150.537 137.236 149.23 137.248 147.883C137.271 146.453 137.277 145.023 137.266 143.594C137.254 142.164 137.283 140.723 137.354 139.27C138.854 138.824 140.354 138.49 141.854 138.268C143.354 138.045 144.9 137.934 146.494 137.934C147.396 137.934 148.299 138.01 149.201 138.162C150.104 138.303 150.965 138.531 151.785 138.848C152.617 139.164 153.385 139.562 154.088 140.043C154.803 140.512 155.418 141.074 155.934 141.73C156.449 142.387 156.854 143.137 157.146 143.98C157.451 144.824 157.604 145.762 157.604 146.793ZM149.799 147.391C149.799 146.629 149.564 146.037 149.096 145.615C148.639 145.182 148.041 144.965 147.303 144.965C147.057 144.965 146.799 144.988 146.529 145.035C146.271 145.07 146.025 145.117 145.791 145.176L145.58 150.309C145.744 150.332 145.902 150.344 146.055 150.344C146.207 150.344 146.365 150.344 146.529 150.344C146.951 150.344 147.355 150.273 147.742 150.133C148.141 149.992 148.492 149.793 148.797 149.535C149.102 149.266 149.342 148.955 149.518 148.604C149.705 148.24 149.799 147.836 149.799 147.391ZM179.084 146.793C179.084 147.93 178.914 148.938 178.574 149.816C178.234 150.695 177.766 151.469 177.168 152.137C176.582 152.793 175.891 153.35 175.094 153.807C174.297 154.252 173.441 154.621 172.527 154.914C171.625 155.195 170.688 155.406 169.715 155.547C168.742 155.676 167.787 155.746 166.85 155.758V163.246H158.658C158.658 161.91 158.658 160.609 158.658 159.344C158.67 158.078 158.676 156.824 158.676 155.582C158.688 154.328 158.693 153.068 158.693 151.803C158.705 150.537 158.717 149.23 158.729 147.883C158.752 146.453 158.758 145.023 158.746 143.594C158.734 142.164 158.764 140.723 158.834 139.27C160.334 138.824 161.834 138.49 163.334 138.268C164.834 138.045 166.381 137.934 167.975 137.934C168.877 137.934 169.779 138.01 170.682 138.162C171.584 138.303 172.445 138.531 173.266 138.848C174.098 139.164 174.865 139.562 175.568 140.043C176.283 140.512 176.898 141.074 177.414 141.73C177.93 142.387 178.334 143.137 178.627 143.98C178.932 144.824 179.084 145.762 179.084 146.793ZM171.279 147.391C171.279 146.629 171.045 146.037 170.576 145.615C170.119 145.182 169.521 144.965 168.783 144.965C168.537 144.965 168.279 144.988 168.01 145.035C167.752 145.07 167.506 145.117 167.271 145.176L167.061 150.309C167.225 150.332 167.383 150.344 167.535 150.344C167.688 150.344 167.846 150.344 168.01 150.344C168.432 150.344 168.836 150.273 169.223 150.133C169.621 149.992 169.973 149.793 170.277 149.535C170.582 149.266 170.822 148.955 170.998 148.604C171.186 148.24 171.279 147.836 171.279 147.391Z"
        fill="white" />
    </g>
    <defs>
      <clipPath id="clip0_8_6">
        <rect width="192" height="192" fill="white" />
      </clipPath>
    </defs>
  </svg>

</svg>