<svg width="512" height="512" viewBox="0 0 512 512" fill="none" xmlns="http://www.w3.org/2000/svg">
  <rect width="512" height="512" rx="80" fill="#10B981" />
  <svg width="512" height="512" viewBox="0 0 512 512" fill="none" xmlns="http://www.w3.org/2000/svg">
    <path
      d="M353.01 187.864C352.662 188.513 352.318 189.173 351.77 189.729L335.899 205.593C332.894 208.605 328.017 208.605 325.005 205.593C321.993 202.588 321.993 197.711 325.005 194.699L336.342 183.356C330.574 181.554 324.644 179.471 318.638 177.164C318.545 177.264 318.513 177.394 318.42 177.488L300.292 195.616C297.28 198.621 292.403 198.621 289.391 195.616C286.379 192.597 286.379 187.728 289.391 184.709L303.229 170.871C297.074 168.222 290.982 165.446 285.07 162.615C284.689 163.494 284.166 164.33 283.448 165.054L265.32 183.175C262.315 186.186 257.431 186.186 254.42 183.175C251.414 180.163 251.414 175.286 254.42 172.281L271.033 155.662C255.006 147.455 241.431 139.586 233.704 134.428C214.59 121.681 210.948 128.061 202.754 133.517C194.56 138.974 175.446 163.164 145.408 163.164C119.011 163.164 109.95 154.109 99.8969 142.628C87.1504 128.067 73.5 131.902 73.5 152.125C73.5 163.955 73.5 246.613 73.5 263.001C73.5 277.886 79.5681 288.232 101.132 290.009L101.849 298.783C102.123 302.162 104.948 304.77 108.34 304.77H119.159C122.545 304.77 125.377 302.162 125.651 298.783L126.424 289.285C133.895 288.513 141.441 287.402 149.828 286.274L150.589 295.591C150.864 298.97 153.695 301.578 157.081 301.578H167.901C171.286 301.578 174.118 298.97 174.393 295.591L175.383 283.436C183.235 282.788 191.903 282.288 201.843 282.096C203.253 282.065 204.631 282.083 205.99 282.114L207.094 295.591C207.368 298.97 210.199 301.578 213.585 301.578H224.405C227.797 301.578 230.622 298.97 230.896 295.591L231.726 285.481C240.026 287.097 249.175 288.967 260.686 290.358L261.372 298.783C261.646 302.162 264.477 304.77 267.863 304.77H278.683C282.075 304.77 284.9 302.162 285.174 298.783L285.71 292.216C294.497 292.491 304.418 292.447 315.762 291.93L316.323 298.783C316.598 302.162 319.429 304.77 322.815 304.77H333.635C337.02 304.77 339.852 302.162 340.126 298.783L340.837 290.083C349.392 289.217 357.306 288.101 364.533 286.723L365.063 293.196C365.337 296.575 368.169 299.182 371.555 299.182H382.374C385.766 299.182 388.591 296.575 388.866 293.196L389.932 280.118C426.377 267.535 438.5 246.931 438.5 227.501C438.5 201.34 395.066 197.73 353.01 187.864ZM118.605 190.44C110.093 190.44 85.6099 190.44 85.6099 190.44C85.6099 190.44 85.6099 158.517 85.6099 154.788C85.6099 151.06 89.339 148.396 94.1289 152.656C96.2676 154.558 113.81 170.752 120.731 173.945C127.653 177.138 127.117 190.44 118.605 190.44ZM171.362 257.489L131.376 203.211H153.726L193.712 257.489H171.362ZM216.822 257.489L176.837 203.211H199.187L239.172 257.489H216.822ZM264.715 257.489L224.73 203.211H247.08L287.065 257.489H264.715Z"
      fill="white" />
    <path
      d="M92.5469 339.051L75.3906 404.301L52.1406 405.614L31.0469 339.708L53.2656 337.645L62.2656 376.083L70.9844 337.645L92.5469 339.051ZM148.328 400.739L125.078 403.739L122.266 393.145H111.578L109.234 403.739L85.3281 401.395L103.984 338.958L130.047 337.645L148.328 400.739ZM120.578 378.801L117.016 362.489L113.547 378.801H120.578ZM204.25 359.583C204.25 362.02 204.031 364.239 203.594 366.239C203.188 368.208 202.531 370.02 201.625 371.676C200.719 373.333 199.547 374.864 198.109 376.27C196.672 377.676 194.938 379.02 192.906 380.301L204.062 400.176L182.969 404.301L175.75 384.333L169.938 384.52L169.094 404.02H148.938C149.094 396.895 149.234 389.801 149.359 382.739C149.516 375.676 149.688 368.583 149.875 361.458C149.938 357.864 150 354.301 150.062 350.77C150.125 347.239 150.25 343.676 150.438 340.083C152.625 339.27 154.781 338.598 156.906 338.067C159.031 337.536 161.156 337.13 163.281 336.848C165.438 336.536 167.609 336.333 169.797 336.239C172.016 336.114 174.281 336.051 176.594 336.051C180.156 336.051 183.594 336.551 186.906 337.551C190.25 338.52 193.203 339.989 195.766 341.958C198.328 343.926 200.375 346.38 201.906 349.317C203.469 352.255 204.25 355.676 204.25 359.583ZM183.25 361.083C183.25 359.77 183.062 358.567 182.688 357.473C182.344 356.38 181.812 355.442 181.094 354.661C180.406 353.848 179.531 353.223 178.469 352.786C177.438 352.317 176.219 352.083 174.812 352.083C174.188 352.083 173.578 352.13 172.984 352.223C172.391 352.286 171.812 352.395 171.25 352.551L170.5 369.989H171.625C172.969 369.989 174.328 369.817 175.703 369.473C177.109 369.13 178.359 368.598 179.453 367.88C180.578 367.161 181.484 366.239 182.172 365.114C182.891 363.989 183.25 362.645 183.25 361.083ZM251.5 355.176L230.031 382.27H249.812L250.469 402.145L208.656 403.833L206.781 385.458L231.25 355.458L206.969 357.145L206.781 338.301H250.656L251.5 355.176ZM306.438 366.895C306.438 369.614 306.25 372.333 305.875 375.051C300.531 375.395 295.219 375.958 289.938 376.739C284.656 377.489 279.375 378.239 274.094 378.989C274.906 381.239 276.172 383.036 277.891 384.38C279.641 385.723 281.719 386.395 284.125 386.395C285.375 386.395 286.734 386.161 288.203 385.692C289.703 385.223 291.188 384.645 292.656 383.958C294.125 383.239 295.531 382.473 296.875 381.661C298.219 380.848 299.375 380.114 300.344 379.458L298.094 400.739C296.875 401.676 295.547 402.473 294.109 403.13C292.703 403.786 291.234 404.317 289.703 404.723C288.172 405.13 286.625 405.426 285.062 405.614C283.5 405.801 281.969 405.895 280.469 405.895C277.375 405.895 274.547 405.473 271.984 404.63C269.422 403.786 267.094 402.614 265 401.114C262.938 399.583 261.125 397.786 259.562 395.723C258 393.661 256.703 391.411 255.672 388.973C254.641 386.536 253.859 383.958 253.328 381.239C252.797 378.52 252.531 375.77 252.531 372.989C252.531 370.083 252.797 367.176 253.328 364.27C253.859 361.364 254.656 358.567 255.719 355.88C256.812 353.192 258.172 350.708 259.797 348.426C261.453 346.114 263.375 344.098 265.562 342.38C267.75 340.661 270.219 339.317 272.969 338.348C275.75 337.38 278.812 336.895 282.156 336.895C284.938 336.895 287.469 337.286 289.75 338.067C292.062 338.817 294.109 339.88 295.891 341.255C297.703 342.598 299.266 344.208 300.578 346.083C301.922 347.958 303.016 350.02 303.859 352.27C304.734 354.489 305.375 356.848 305.781 359.348C306.219 361.817 306.438 364.333 306.438 366.895ZM287.688 364.458C287.688 363.583 287.594 362.692 287.406 361.786C287.219 360.848 286.906 360.005 286.469 359.255C286.062 358.505 285.516 357.895 284.828 357.426C284.141 356.926 283.281 356.676 282.25 356.676C281 356.676 279.891 357.02 278.922 357.708C277.984 358.364 277.172 359.208 276.484 360.239C275.797 361.239 275.234 362.333 274.797 363.52C274.359 364.708 274.031 365.801 273.812 366.801L287.688 365.489V364.458ZM366.016 400.739L342.766 403.739L339.953 393.145H329.266L326.922 403.739L303.016 401.395L321.672 338.958L347.734 337.645L366.016 400.739ZM338.266 378.801L334.703 362.489L331.234 378.801H338.266ZM421.609 361.551C421.609 364.583 421.156 367.27 420.25 369.614C419.344 371.958 418.094 374.02 416.5 375.801C414.938 377.551 413.094 379.036 410.969 380.255C408.844 381.442 406.562 382.426 404.125 383.208C401.719 383.958 399.219 384.52 396.625 384.895C394.031 385.239 391.484 385.426 388.984 385.458V405.426H367.141C367.141 401.864 367.141 398.395 367.141 395.02C367.172 391.645 367.188 388.301 367.188 384.989C367.219 381.645 367.234 378.286 367.234 374.911C367.266 371.536 367.297 368.051 367.328 364.458C367.391 360.645 367.406 356.833 367.375 353.02C367.344 349.208 367.422 345.364 367.609 341.489C371.609 340.301 375.609 339.411 379.609 338.817C383.609 338.223 387.734 337.926 391.984 337.926C394.391 337.926 396.797 338.13 399.203 338.536C401.609 338.911 403.906 339.52 406.094 340.364C408.312 341.208 410.359 342.27 412.234 343.551C414.141 344.801 415.781 346.301 417.156 348.051C418.531 349.801 419.609 351.801 420.391 354.051C421.203 356.301 421.609 358.801 421.609 361.551ZM400.797 363.145C400.797 361.114 400.172 359.536 398.922 358.411C397.703 357.255 396.109 356.676 394.141 356.676C393.484 356.676 392.797 356.739 392.078 356.864C391.391 356.958 390.734 357.083 390.109 357.239L389.547 370.926C389.984 370.989 390.406 371.02 390.812 371.02C391.219 371.02 391.641 371.02 392.078 371.02C393.203 371.02 394.281 370.833 395.312 370.458C396.375 370.083 397.312 369.551 398.125 368.864C398.938 368.145 399.578 367.317 400.047 366.38C400.547 365.411 400.797 364.333 400.797 363.145ZM478.891 361.551C478.891 364.583 478.438 367.27 477.531 369.614C476.625 371.958 475.375 374.02 473.781 375.801C472.219 377.551 470.375 379.036 468.25 380.255C466.125 381.442 463.844 382.426 461.406 383.208C459 383.958 456.5 384.52 453.906 384.895C451.312 385.239 448.766 385.426 446.266 385.458V405.426H424.422C424.422 401.864 424.422 398.395 424.422 395.02C424.453 391.645 424.469 388.301 424.469 384.989C424.5 381.645 424.516 378.286 424.516 374.911C424.547 371.536 424.578 368.051 424.609 364.458C424.672 360.645 424.688 356.833 424.656 353.02C424.625 349.208 424.703 345.364 424.891 341.489C428.891 340.301 432.891 339.411 436.891 338.817C440.891 338.223 445.016 337.926 449.266 337.926C451.672 337.926 454.078 338.13 456.484 338.536C458.891 338.911 461.188 339.52 463.375 340.364C465.594 341.208 467.641 342.27 469.516 343.551C471.422 344.801 473.062 346.301 474.438 348.051C475.812 349.801 476.891 351.801 477.672 354.051C478.484 356.301 478.891 358.801 478.891 361.551ZM458.078 363.145C458.078 361.114 457.453 359.536 456.203 358.411C454.984 357.255 453.391 356.676 451.422 356.676C450.766 356.676 450.078 356.739 449.359 356.864C448.672 356.958 448.016 357.083 447.391 357.239L446.828 370.926C447.266 370.989 447.688 371.02 448.094 371.02C448.5 371.02 448.922 371.02 449.359 371.02C450.484 371.02 451.562 370.833 452.594 370.458C453.656 370.083 454.594 369.551 455.406 368.864C456.219 368.145 456.859 367.317 457.328 366.38C457.828 365.411 458.078 364.333 458.078 363.145Z"
      fill="white" />
  </svg>

</svg>